<mxfile host="app.diagrams.net" agent="Mozilla/5.0 (Windows NT 10.0; Win64; x64) AppleWebKit/537.36 (KHTML, like Gecko) Chrome/128.0.0.0 Safari/537.36" version="24.7.14">
  <diagram name="Trang-1" id="N5LPkn3CKNuSRvLNWtp1">
    <mxGraphModel dx="1050" dy="565" grid="1" gridSize="10" guides="1" tooltips="1" connect="1" arrows="1" fold="1" page="1" pageScale="1" pageWidth="827" pageHeight="1169" math="0" shadow="0">
      <root>
        <mxCell id="0" />
        <mxCell id="1" parent="0" />
        <mxCell id="Zfw_EBbgk86jnpkeLdV4-21" value="Khách" style="shape=umlActor;verticalLabelPosition=bottom;verticalAlign=top;html=1;outlineConnect=0;" parent="1" vertex="1">
          <mxGeometry x="30" y="380" width="30" height="60" as="geometry" />
        </mxCell>
        <mxCell id="Zfw_EBbgk86jnpkeLdV4-22" value="" style="endArrow=classic;html=1;rounded=0;" parent="1" target="Zfw_EBbgk86jnpkeLdV4-23" edge="1">
          <mxGeometry width="50" height="50" relative="1" as="geometry">
            <mxPoint x="90" y="380" as="sourcePoint" />
            <mxPoint x="180" y="320" as="targetPoint" />
          </mxGeometry>
        </mxCell>
        <mxCell id="Zfw_EBbgk86jnpkeLdV4-23" value="Đăng ký" style="ellipse;whiteSpace=wrap;html=1;" parent="1" vertex="1">
          <mxGeometry x="180" y="250" width="120" height="80" as="geometry" />
        </mxCell>
        <mxCell id="Zfw_EBbgk86jnpkeLdV4-24" value="Đăng nhập&amp;nbsp;" style="ellipse;whiteSpace=wrap;html=1;" parent="1" vertex="1">
          <mxGeometry x="170" y="450" width="120" height="80" as="geometry" />
        </mxCell>
        <mxCell id="Zfw_EBbgk86jnpkeLdV4-25" value="" style="endArrow=classic;html=1;rounded=0;entryX=-0.002;entryY=0.348;entryDx=0;entryDy=0;entryPerimeter=0;" parent="1" target="Zfw_EBbgk86jnpkeLdV4-24" edge="1">
          <mxGeometry width="50" height="50" relative="1" as="geometry">
            <mxPoint x="70" y="440" as="sourcePoint" />
            <mxPoint x="250" y="460" as="targetPoint" />
          </mxGeometry>
        </mxCell>
        <mxCell id="Zfw_EBbgk86jnpkeLdV4-26" value="" style="endArrow=classic;html=1;rounded=0;exitX=1;exitY=0;exitDx=0;exitDy=0;" parent="1" source="Zfw_EBbgk86jnpkeLdV4-24" target="Zfw_EBbgk86jnpkeLdV4-27" edge="1">
          <mxGeometry width="50" height="50" relative="1" as="geometry">
            <mxPoint x="390" y="510" as="sourcePoint" />
            <mxPoint x="390" y="320" as="targetPoint" />
          </mxGeometry>
        </mxCell>
        <mxCell id="Zfw_EBbgk86jnpkeLdV4-27" value="Tìm tàu" style="ellipse;whiteSpace=wrap;html=1;" parent="1" vertex="1">
          <mxGeometry x="370" y="220" width="120" height="80" as="geometry" />
        </mxCell>
        <mxCell id="Zfw_EBbgk86jnpkeLdV4-28" value="" style="endArrow=classic;html=1;rounded=0;" parent="1" source="Zfw_EBbgk86jnpkeLdV4-24" target="Zfw_EBbgk86jnpkeLdV4-29" edge="1">
          <mxGeometry width="50" height="50" relative="1" as="geometry">
            <mxPoint x="390" y="510" as="sourcePoint" />
            <mxPoint x="410" y="430" as="targetPoint" />
          </mxGeometry>
        </mxCell>
        <mxCell id="Zfw_EBbgk86jnpkeLdV4-29" value="Đặt vé" style="ellipse;whiteSpace=wrap;html=1;" parent="1" vertex="1">
          <mxGeometry x="390" y="340" width="120" height="80" as="geometry" />
        </mxCell>
        <mxCell id="Zfw_EBbgk86jnpkeLdV4-30" value="" style="endArrow=classic;html=1;rounded=0;exitX=0.992;exitY=0.588;exitDx=0;exitDy=0;exitPerimeter=0;" parent="1" source="Zfw_EBbgk86jnpkeLdV4-24" target="Zfw_EBbgk86jnpkeLdV4-31" edge="1">
          <mxGeometry width="50" height="50" relative="1" as="geometry">
            <mxPoint x="390" y="510" as="sourcePoint" />
            <mxPoint x="380" y="480" as="targetPoint" />
          </mxGeometry>
        </mxCell>
        <mxCell id="Zfw_EBbgk86jnpkeLdV4-31" value="Kiểm tra giá vé" style="ellipse;whiteSpace=wrap;html=1;" parent="1" vertex="1">
          <mxGeometry x="390" y="440" width="120" height="80" as="geometry" />
        </mxCell>
        <mxCell id="Zfw_EBbgk86jnpkeLdV4-32" value="" style="endArrow=classic;html=1;rounded=0;exitX=1;exitY=1;exitDx=0;exitDy=0;" parent="1" source="Zfw_EBbgk86jnpkeLdV4-24" target="Zfw_EBbgk86jnpkeLdV4-33" edge="1">
          <mxGeometry width="50" height="50" relative="1" as="geometry">
            <mxPoint x="390" y="510" as="sourcePoint" />
            <mxPoint x="360" y="570" as="targetPoint" />
          </mxGeometry>
        </mxCell>
        <mxCell id="Zfw_EBbgk86jnpkeLdV4-33" value="Thanh toán&amp;nbsp;" style="ellipse;whiteSpace=wrap;html=1;" parent="1" vertex="1">
          <mxGeometry x="380" y="560" width="120" height="80" as="geometry" />
        </mxCell>
        <mxCell id="Zfw_EBbgk86jnpkeLdV4-34" value="" style="endArrow=classic;html=1;rounded=0;exitX=0.618;exitY=1.018;exitDx=0;exitDy=0;exitPerimeter=0;" parent="1" source="Zfw_EBbgk86jnpkeLdV4-24" target="Zfw_EBbgk86jnpkeLdV4-35" edge="1">
          <mxGeometry width="50" height="50" relative="1" as="geometry">
            <mxPoint x="390" y="510" as="sourcePoint" />
            <mxPoint x="370" y="670" as="targetPoint" />
          </mxGeometry>
        </mxCell>
        <mxCell id="Zfw_EBbgk86jnpkeLdV4-35" value="In vé" style="ellipse;whiteSpace=wrap;html=1;" parent="1" vertex="1">
          <mxGeometry x="370" y="680" width="120" height="80" as="geometry" />
        </mxCell>
        <mxCell id="Zfw_EBbgk86jnpkeLdV4-36" value="" style="endArrow=classic;html=1;rounded=0;exitX=0.942;exitY=0.263;exitDx=0;exitDy=0;exitPerimeter=0;" parent="1" source="Zfw_EBbgk86jnpkeLdV4-33" edge="1">
          <mxGeometry width="50" height="50" relative="1" as="geometry">
            <mxPoint x="390" y="510" as="sourcePoint" />
            <mxPoint x="610" y="430" as="targetPoint" />
          </mxGeometry>
        </mxCell>
        <mxCell id="Zfw_EBbgk86jnpkeLdV4-37" value="Train database" style="ellipse;whiteSpace=wrap;html=1;" parent="1" vertex="1">
          <mxGeometry x="600" y="240" width="120" height="80" as="geometry" />
        </mxCell>
        <mxCell id="Zfw_EBbgk86jnpkeLdV4-38" value="" style="endArrow=classic;html=1;rounded=0;exitX=1;exitY=0.5;exitDx=0;exitDy=0;entryX=0;entryY=0.5;entryDx=0;entryDy=0;" parent="1" source="Zfw_EBbgk86jnpkeLdV4-27" target="Zfw_EBbgk86jnpkeLdV4-37" edge="1">
          <mxGeometry width="50" height="50" relative="1" as="geometry">
            <mxPoint x="610" y="510" as="sourcePoint" />
            <mxPoint x="660" y="460" as="targetPoint" />
          </mxGeometry>
        </mxCell>
        <mxCell id="Zfw_EBbgk86jnpkeLdV4-39" value="Số lượng vé" style="ellipse;whiteSpace=wrap;html=1;" parent="1" vertex="1">
          <mxGeometry x="610" y="390" width="120" height="80" as="geometry" />
        </mxCell>
        <mxCell id="Zfw_EBbgk86jnpkeLdV4-40" value="lên lịch tàu" style="ellipse;whiteSpace=wrap;html=1;" parent="1" vertex="1">
          <mxGeometry x="850" y="180" width="120" height="80" as="geometry" />
        </mxCell>
        <mxCell id="Zfw_EBbgk86jnpkeLdV4-41" value="thêm và xóa tàu" style="ellipse;whiteSpace=wrap;html=1;" parent="1" vertex="1">
          <mxGeometry x="850" y="320" width="120" height="80" as="geometry" />
        </mxCell>
        <mxCell id="Zfw_EBbgk86jnpkeLdV4-42" value="cập nhật chi tiết tàu" style="ellipse;whiteSpace=wrap;html=1;" parent="1" vertex="1">
          <mxGeometry x="850" y="470" width="120" height="80" as="geometry" />
        </mxCell>
        <mxCell id="Zfw_EBbgk86jnpkeLdV4-43" value="Kiểm tra số lượng vé" style="ellipse;whiteSpace=wrap;html=1;" parent="1" vertex="1">
          <mxGeometry x="850" y="610" width="120" height="80" as="geometry" />
        </mxCell>
        <mxCell id="Zfw_EBbgk86jnpkeLdV4-44" value="Đăng nhập&amp;nbsp;" style="ellipse;whiteSpace=wrap;html=1;" parent="1" vertex="1">
          <mxGeometry x="1090" y="400" width="120" height="80" as="geometry" />
        </mxCell>
        <mxCell id="Zfw_EBbgk86jnpkeLdV4-45" value="Admin" style="shape=umlActor;verticalLabelPosition=bottom;verticalAlign=top;html=1;outlineConnect=0;" parent="1" vertex="1">
          <mxGeometry x="1330" y="400" width="30" height="60" as="geometry" />
        </mxCell>
        <mxCell id="Zfw_EBbgk86jnpkeLdV4-46" value="" style="endArrow=classic;html=1;rounded=0;" parent="1" edge="1">
          <mxGeometry width="50" height="50" relative="1" as="geometry">
            <mxPoint x="1320" y="430" as="sourcePoint" />
            <mxPoint x="1220" y="430" as="targetPoint" />
          </mxGeometry>
        </mxCell>
        <mxCell id="Zfw_EBbgk86jnpkeLdV4-47" value="" style="endArrow=classic;html=1;rounded=0;exitX=0;exitY=1;exitDx=0;exitDy=0;entryX=0.97;entryY=0.388;entryDx=0;entryDy=0;entryPerimeter=0;" parent="1" source="Zfw_EBbgk86jnpkeLdV4-44" target="Zfw_EBbgk86jnpkeLdV4-43" edge="1">
          <mxGeometry width="50" height="50" relative="1" as="geometry">
            <mxPoint x="1020" y="570" as="sourcePoint" />
            <mxPoint x="1070" y="520" as="targetPoint" />
          </mxGeometry>
        </mxCell>
        <mxCell id="Zfw_EBbgk86jnpkeLdV4-48" value="" style="endArrow=classic;html=1;rounded=0;exitX=-0.017;exitY=0.612;exitDx=0;exitDy=0;exitPerimeter=0;" parent="1" source="Zfw_EBbgk86jnpkeLdV4-44" target="Zfw_EBbgk86jnpkeLdV4-42" edge="1">
          <mxGeometry width="50" height="50" relative="1" as="geometry">
            <mxPoint x="890" y="500" as="sourcePoint" />
            <mxPoint x="940" y="450" as="targetPoint" />
          </mxGeometry>
        </mxCell>
        <mxCell id="Zfw_EBbgk86jnpkeLdV4-49" value="" style="endArrow=classic;html=1;rounded=0;entryX=0.963;entryY=0.652;entryDx=0;entryDy=0;entryPerimeter=0;" parent="1" source="Zfw_EBbgk86jnpkeLdV4-44" target="Zfw_EBbgk86jnpkeLdV4-41" edge="1">
          <mxGeometry width="50" height="50" relative="1" as="geometry">
            <mxPoint x="1020" y="400" as="sourcePoint" />
            <mxPoint x="1070" y="350" as="targetPoint" />
          </mxGeometry>
        </mxCell>
        <mxCell id="Zfw_EBbgk86jnpkeLdV4-50" value="" style="endArrow=classic;html=1;rounded=0;exitX=0.333;exitY=0;exitDx=0;exitDy=0;exitPerimeter=0;entryX=1;entryY=1;entryDx=0;entryDy=0;" parent="1" source="Zfw_EBbgk86jnpkeLdV4-44" target="Zfw_EBbgk86jnpkeLdV4-40" edge="1">
          <mxGeometry width="50" height="50" relative="1" as="geometry">
            <mxPoint x="1040" y="310" as="sourcePoint" />
            <mxPoint x="1090" y="260" as="targetPoint" />
          </mxGeometry>
        </mxCell>
        <mxCell id="Zfw_EBbgk86jnpkeLdV4-51" value="" style="endArrow=classic;html=1;rounded=0;exitX=-0.017;exitY=0.592;exitDx=0;exitDy=0;exitPerimeter=0;entryX=1;entryY=0.5;entryDx=0;entryDy=0;" parent="1" source="Zfw_EBbgk86jnpkeLdV4-40" target="Zfw_EBbgk86jnpkeLdV4-37" edge="1">
          <mxGeometry width="50" height="50" relative="1" as="geometry">
            <mxPoint x="760" y="310" as="sourcePoint" />
            <mxPoint x="810" y="260" as="targetPoint" />
          </mxGeometry>
        </mxCell>
        <mxCell id="Zfw_EBbgk86jnpkeLdV4-52" value="" style="endArrow=classic;html=1;rounded=0;exitX=0;exitY=0.375;exitDx=0;exitDy=0;exitPerimeter=0;" parent="1" source="Zfw_EBbgk86jnpkeLdV4-41" target="Zfw_EBbgk86jnpkeLdV4-37" edge="1">
          <mxGeometry width="50" height="50" relative="1" as="geometry">
            <mxPoint x="760" y="350" as="sourcePoint" />
            <mxPoint x="810" y="300" as="targetPoint" />
          </mxGeometry>
        </mxCell>
        <mxCell id="Zfw_EBbgk86jnpkeLdV4-53" value="" style="endArrow=classic;html=1;rounded=0;exitX=0.037;exitY=0.337;exitDx=0;exitDy=0;exitPerimeter=0;entryX=0.793;entryY=0.962;entryDx=0;entryDy=0;entryPerimeter=0;" parent="1" source="Zfw_EBbgk86jnpkeLdV4-42" target="Zfw_EBbgk86jnpkeLdV4-37" edge="1">
          <mxGeometry width="50" height="50" relative="1" as="geometry">
            <mxPoint x="780" y="480" as="sourcePoint" />
            <mxPoint x="830" y="430" as="targetPoint" />
          </mxGeometry>
        </mxCell>
        <mxCell id="Zfw_EBbgk86jnpkeLdV4-54" value="" style="endArrow=classic;html=1;rounded=0;exitX=1;exitY=1;exitDx=0;exitDy=0;entryX=0;entryY=0.375;entryDx=0;entryDy=0;entryPerimeter=0;" parent="1" source="Zfw_EBbgk86jnpkeLdV4-39" target="Zfw_EBbgk86jnpkeLdV4-43" edge="1">
          <mxGeometry width="50" height="50" relative="1" as="geometry">
            <mxPoint x="730" y="520" as="sourcePoint" />
            <mxPoint x="780" y="470" as="targetPoint" />
          </mxGeometry>
        </mxCell>
        <mxCell id="Zfw_EBbgk86jnpkeLdV4-55" value="Sơ đồ trình tự&amp;nbsp;" style="rounded=0;whiteSpace=wrap;html=1;" parent="1" vertex="1">
          <mxGeometry x="80" y="850" width="220" height="60" as="geometry" />
        </mxCell>
        <mxCell id="Zfw_EBbgk86jnpkeLdV4-59" value="Nguòi dùng" style="rounded=0;whiteSpace=wrap;html=1;" parent="1" vertex="1">
          <mxGeometry x="40" y="950" width="120" height="60" as="geometry" />
        </mxCell>
        <mxCell id="Zfw_EBbgk86jnpkeLdV4-60" value="Hệ thống" style="rounded=0;whiteSpace=wrap;html=1;" parent="1" vertex="1">
          <mxGeometry x="250" y="950" width="120" height="60" as="geometry" />
        </mxCell>
        <mxCell id="Zfw_EBbgk86jnpkeLdV4-61" value="" style="endArrow=none;dashed=1;html=1;rounded=0;exitX=0.5;exitY=1;exitDx=0;exitDy=0;" parent="1" source="Zfw_EBbgk86jnpkeLdV4-59" edge="1">
          <mxGeometry width="50" height="50" relative="1" as="geometry">
            <mxPoint x="340" y="880" as="sourcePoint" />
            <mxPoint x="100" y="1310.7999267578125" as="targetPoint" />
          </mxGeometry>
        </mxCell>
        <mxCell id="Zfw_EBbgk86jnpkeLdV4-62" value="" style="endArrow=none;dashed=1;html=1;rounded=0;exitX=0.5;exitY=1;exitDx=0;exitDy=0;" parent="1" source="Zfw_EBbgk86jnpkeLdV4-60" edge="1">
          <mxGeometry width="50" height="50" relative="1" as="geometry">
            <mxPoint x="340" y="1090" as="sourcePoint" />
            <mxPoint x="310" y="1300" as="targetPoint" />
          </mxGeometry>
        </mxCell>
        <mxCell id="Zfw_EBbgk86jnpkeLdV4-63" value="1. tìm kiếm&amp;nbsp;" style="text;html=1;align=center;verticalAlign=middle;whiteSpace=wrap;rounded=0;" parent="1" vertex="1">
          <mxGeometry x="160" y="1050" width="80" height="30" as="geometry" />
        </mxCell>
        <mxCell id="Zfw_EBbgk86jnpkeLdV4-64" value="2.chuyến đi thay thế" style="text;html=1;align=center;verticalAlign=middle;whiteSpace=wrap;rounded=0;" parent="1" vertex="1">
          <mxGeometry x="140" y="1110" width="120" height="30" as="geometry" />
        </mxCell>
        <mxCell id="Zfw_EBbgk86jnpkeLdV4-67" value="" style="endArrow=none;html=1;rounded=0;entryX=0;entryY=0.5;entryDx=0;entryDy=0;" parent="1" target="Zfw_EBbgk86jnpkeLdV4-63" edge="1">
          <mxGeometry width="50" height="50" relative="1" as="geometry">
            <mxPoint x="110" y="1065" as="sourcePoint" />
            <mxPoint x="390" y="1040" as="targetPoint" />
          </mxGeometry>
        </mxCell>
        <mxCell id="Zfw_EBbgk86jnpkeLdV4-68" value="" style="endArrow=classic;html=1;rounded=0;exitX=1;exitY=0.5;exitDx=0;exitDy=0;" parent="1" source="Zfw_EBbgk86jnpkeLdV4-63" edge="1">
          <mxGeometry width="50" height="50" relative="1" as="geometry">
            <mxPoint x="340" y="1090" as="sourcePoint" />
            <mxPoint x="300" y="1065" as="targetPoint" />
          </mxGeometry>
        </mxCell>
        <mxCell id="Zfw_EBbgk86jnpkeLdV4-69" value="" style="endArrow=none;dashed=1;html=1;dashPattern=1 3;strokeWidth=2;rounded=0;exitX=1;exitY=0.5;exitDx=0;exitDy=0;" parent="1" source="Zfw_EBbgk86jnpkeLdV4-64" edge="1">
          <mxGeometry width="50" height="50" relative="1" as="geometry">
            <mxPoint x="340" y="1090" as="sourcePoint" />
            <mxPoint x="310" y="1125" as="targetPoint" />
          </mxGeometry>
        </mxCell>
        <mxCell id="Zfw_EBbgk86jnpkeLdV4-72" value="" style="endArrow=classic;html=1;rounded=0;exitX=0;exitY=0.5;exitDx=0;exitDy=0;" parent="1" source="Zfw_EBbgk86jnpkeLdV4-64" edge="1">
          <mxGeometry width="50" height="50" relative="1" as="geometry">
            <mxPoint x="480" y="1140" as="sourcePoint" />
            <mxPoint x="100" y="1125" as="targetPoint" />
          </mxGeometry>
        </mxCell>
        <mxCell id="Zfw_EBbgk86jnpkeLdV4-75" value="" style="rounded=1;whiteSpace=wrap;html=1;" parent="1" vertex="1">
          <mxGeometry x="30" y="1160" width="350" height="230" as="geometry" />
        </mxCell>
        <mxCell id="Zfw_EBbgk86jnpkeLdV4-76" value="Chuyến có sẵn" style="text;html=1;align=center;verticalAlign=middle;whiteSpace=wrap;rounded=0;" parent="1" vertex="1">
          <mxGeometry x="40" y="1169" width="120" height="30" as="geometry" />
        </mxCell>
        <mxCell id="Zfw_EBbgk86jnpkeLdV4-78" value="3.Chọn chuyến&amp;nbsp;" style="text;html=1;align=center;verticalAlign=middle;whiteSpace=wrap;rounded=0;" parent="1" vertex="1">
          <mxGeometry x="130" y="1210" width="120" height="30" as="geometry" />
        </mxCell>
        <mxCell id="Zfw_EBbgk86jnpkeLdV4-79" value="4. Xác nhận chuyến" style="text;html=1;align=center;verticalAlign=middle;whiteSpace=wrap;rounded=0;" parent="1" vertex="1">
          <mxGeometry x="130" y="1250" width="130" height="30" as="geometry" />
        </mxCell>
        <mxCell id="Zfw_EBbgk86jnpkeLdV4-81" value="" style="endArrow=none;html=1;rounded=0;entryX=0;entryY=0.5;entryDx=0;entryDy=0;" parent="1" target="Zfw_EBbgk86jnpkeLdV4-78" edge="1">
          <mxGeometry width="50" height="50" relative="1" as="geometry">
            <mxPoint x="30" y="1225" as="sourcePoint" />
            <mxPoint x="110" y="1210" as="targetPoint" />
          </mxGeometry>
        </mxCell>
        <mxCell id="Zfw_EBbgk86jnpkeLdV4-84" value="" style="endArrow=classic;html=1;rounded=0;exitX=1;exitY=0.5;exitDx=0;exitDy=0;entryX=0.995;entryY=0.296;entryDx=0;entryDy=0;entryPerimeter=0;" parent="1" source="Zfw_EBbgk86jnpkeLdV4-78" target="Zfw_EBbgk86jnpkeLdV4-75" edge="1">
          <mxGeometry width="50" height="50" relative="1" as="geometry">
            <mxPoint x="260" y="1250" as="sourcePoint" />
            <mxPoint x="310" y="1200" as="targetPoint" />
          </mxGeometry>
        </mxCell>
        <mxCell id="Zfw_EBbgk86jnpkeLdV4-85" value="" style="endArrow=none;dashed=1;html=1;rounded=0;exitX=1;exitY=0.5;exitDx=0;exitDy=0;entryX=0.998;entryY=0.452;entryDx=0;entryDy=0;entryPerimeter=0;" parent="1" source="Zfw_EBbgk86jnpkeLdV4-79" target="Zfw_EBbgk86jnpkeLdV4-75" edge="1">
          <mxGeometry width="50" height="50" relative="1" as="geometry">
            <mxPoint x="280" y="1290" as="sourcePoint" />
            <mxPoint x="330" y="1240" as="targetPoint" />
          </mxGeometry>
        </mxCell>
        <mxCell id="Zfw_EBbgk86jnpkeLdV4-86" value="" style="endArrow=classic;html=1;rounded=0;exitX=0;exitY=0.5;exitDx=0;exitDy=0;entryX=0.006;entryY=0.46;entryDx=0;entryDy=0;entryPerimeter=0;" parent="1" source="Zfw_EBbgk86jnpkeLdV4-79" target="Zfw_EBbgk86jnpkeLdV4-75" edge="1">
          <mxGeometry width="50" height="50" relative="1" as="geometry">
            <mxPoint x="430" y="1170" as="sourcePoint" />
            <mxPoint x="480" y="1120" as="targetPoint" />
          </mxGeometry>
        </mxCell>
        <mxCell id="Zfw_EBbgk86jnpkeLdV4-87" value="5. Gửi thông tin" style="text;html=1;align=center;verticalAlign=middle;whiteSpace=wrap;rounded=0;" parent="1" vertex="1">
          <mxGeometry x="140" y="1290" width="110" height="30" as="geometry" />
        </mxCell>
        <mxCell id="Zfw_EBbgk86jnpkeLdV4-89" value="" style="endArrow=none;html=1;rounded=0;entryX=0;entryY=0.5;entryDx=0;entryDy=0;exitX=0.001;exitY=0.636;exitDx=0;exitDy=0;exitPerimeter=0;" parent="1" source="Zfw_EBbgk86jnpkeLdV4-75" target="Zfw_EBbgk86jnpkeLdV4-87" edge="1">
          <mxGeometry width="50" height="50" relative="1" as="geometry">
            <mxPoint x="60" y="1340" as="sourcePoint" />
            <mxPoint x="110" y="1290" as="targetPoint" />
          </mxGeometry>
        </mxCell>
        <mxCell id="Zfw_EBbgk86jnpkeLdV4-90" value="" style="endArrow=classic;html=1;rounded=0;exitX=1;exitY=0.5;exitDx=0;exitDy=0;entryX=1.006;entryY=0.632;entryDx=0;entryDy=0;entryPerimeter=0;" parent="1" source="Zfw_EBbgk86jnpkeLdV4-87" target="Zfw_EBbgk86jnpkeLdV4-75" edge="1">
          <mxGeometry width="50" height="50" relative="1" as="geometry">
            <mxPoint x="260" y="1330" as="sourcePoint" />
            <mxPoint x="310" y="1280" as="targetPoint" />
          </mxGeometry>
        </mxCell>
        <mxCell id="Zfw_EBbgk86jnpkeLdV4-91" value="6. trả lại xác nhận thông tin" style="text;html=1;align=center;verticalAlign=middle;whiteSpace=wrap;rounded=0;" parent="1" vertex="1">
          <mxGeometry x="130" y="1330" width="150" height="30" as="geometry" />
        </mxCell>
        <mxCell id="Zfw_EBbgk86jnpkeLdV4-93" value="" style="endArrow=none;dashed=1;html=1;rounded=0;exitX=1;exitY=0.5;exitDx=0;exitDy=0;entryX=1.004;entryY=0.804;entryDx=0;entryDy=0;entryPerimeter=0;" parent="1" source="Zfw_EBbgk86jnpkeLdV4-91" target="Zfw_EBbgk86jnpkeLdV4-75" edge="1">
          <mxGeometry width="50" height="50" relative="1" as="geometry">
            <mxPoint x="290" y="1370" as="sourcePoint" />
            <mxPoint x="340" y="1320" as="targetPoint" />
          </mxGeometry>
        </mxCell>
        <mxCell id="Zfw_EBbgk86jnpkeLdV4-94" value="" style="endArrow=classic;html=1;rounded=0;exitX=0;exitY=0.5;exitDx=0;exitDy=0;entryX=-0.005;entryY=0.812;entryDx=0;entryDy=0;entryPerimeter=0;" parent="1" source="Zfw_EBbgk86jnpkeLdV4-91" target="Zfw_EBbgk86jnpkeLdV4-75" edge="1">
          <mxGeometry width="50" height="50" relative="1" as="geometry">
            <mxPoint x="430" y="1170" as="sourcePoint" />
            <mxPoint x="480" y="1120" as="targetPoint" />
          </mxGeometry>
        </mxCell>
        <mxCell id="Zfw_EBbgk86jnpkeLdV4-95" value="" style="rounded=1;whiteSpace=wrap;html=1;" parent="1" vertex="1">
          <mxGeometry x="30" y="1430" width="350" height="250" as="geometry" />
        </mxCell>
        <mxCell id="Zfw_EBbgk86jnpkeLdV4-96" value="[ Thông&amp;nbsp; tin đúng]" style="text;html=1;align=center;verticalAlign=middle;whiteSpace=wrap;rounded=0;" parent="1" vertex="1">
          <mxGeometry x="50" y="1440" width="110" height="50" as="geometry" />
        </mxCell>
        <mxCell id="Zfw_EBbgk86jnpkeLdV4-97" value="7. Mua vé" style="text;html=1;align=center;verticalAlign=middle;whiteSpace=wrap;rounded=0;" parent="1" vertex="1">
          <mxGeometry x="170" y="1490" width="80" height="30" as="geometry" />
        </mxCell>
        <mxCell id="Zfw_EBbgk86jnpkeLdV4-98" value="" style="endArrow=none;html=1;rounded=0;" parent="1" edge="1">
          <mxGeometry width="50" height="50" relative="1" as="geometry">
            <mxPoint x="50" y="1510" as="sourcePoint" />
            <mxPoint x="140" y="1510" as="targetPoint" />
          </mxGeometry>
        </mxCell>
        <mxCell id="Zfw_EBbgk86jnpkeLdV4-100" value="" style="endArrow=classic;html=1;rounded=0;exitX=0.657;exitY=0.32;exitDx=0;exitDy=0;exitPerimeter=0;entryX=0.943;entryY=0.32;entryDx=0;entryDy=0;entryPerimeter=0;" parent="1" source="Zfw_EBbgk86jnpkeLdV4-95" target="Zfw_EBbgk86jnpkeLdV4-95" edge="1">
          <mxGeometry width="50" height="50" relative="1" as="geometry">
            <mxPoint x="280" y="1530" as="sourcePoint" />
            <mxPoint x="330" y="1480" as="targetPoint" />
          </mxGeometry>
        </mxCell>
        <mxCell id="Zfw_EBbgk86jnpkeLdV4-101" value="8. Xác nhận Email" style="text;html=1;align=center;verticalAlign=middle;whiteSpace=wrap;rounded=0;" parent="1" vertex="1">
          <mxGeometry x="170" y="1540" width="100" height="30" as="geometry" />
        </mxCell>
        <mxCell id="Zfw_EBbgk86jnpkeLdV4-102" value="" style="endArrow=none;html=1;rounded=0;entryX=0.971;entryY=0.52;entryDx=0;entryDy=0;entryPerimeter=0;" parent="1" target="Zfw_EBbgk86jnpkeLdV4-95" edge="1">
          <mxGeometry width="50" height="50" relative="1" as="geometry">
            <mxPoint x="280" y="1560" as="sourcePoint" />
            <mxPoint x="330" y="1520" as="targetPoint" />
          </mxGeometry>
        </mxCell>
        <mxCell id="Zfw_EBbgk86jnpkeLdV4-103" value="" style="endArrow=classic;html=1;rounded=0;entryX=0.057;entryY=0.52;entryDx=0;entryDy=0;entryPerimeter=0;" parent="1" target="Zfw_EBbgk86jnpkeLdV4-95" edge="1">
          <mxGeometry width="50" height="50" relative="1" as="geometry">
            <mxPoint x="140" y="1560" as="sourcePoint" />
            <mxPoint x="125" y="1530" as="targetPoint" />
          </mxGeometry>
        </mxCell>
        <mxCell id="Zfw_EBbgk86jnpkeLdV4-104" style="edgeStyle=orthogonalEdgeStyle;rounded=0;orthogonalLoop=1;jettySize=auto;html=1;exitX=0.5;exitY=1;exitDx=0;exitDy=0;" parent="1" source="Zfw_EBbgk86jnpkeLdV4-95" target="Zfw_EBbgk86jnpkeLdV4-95" edge="1">
          <mxGeometry relative="1" as="geometry" />
        </mxCell>
        <mxCell id="Zfw_EBbgk86jnpkeLdV4-105" value="9. Nhận vé" style="text;html=1;align=center;verticalAlign=middle;whiteSpace=wrap;rounded=0;" parent="1" vertex="1">
          <mxGeometry x="150" y="1600" width="120" height="30" as="geometry" />
        </mxCell>
        <mxCell id="Zfw_EBbgk86jnpkeLdV4-106" value="" style="endArrow=none;html=1;rounded=0;exitX=1;exitY=0.5;exitDx=0;exitDy=0;entryX=0.971;entryY=0.74;entryDx=0;entryDy=0;entryPerimeter=0;" parent="1" source="Zfw_EBbgk86jnpkeLdV4-105" target="Zfw_EBbgk86jnpkeLdV4-95" edge="1">
          <mxGeometry width="50" height="50" relative="1" as="geometry">
            <mxPoint x="300" y="1640" as="sourcePoint" />
            <mxPoint x="350" y="1590" as="targetPoint" />
          </mxGeometry>
        </mxCell>
        <mxCell id="Zfw_EBbgk86jnpkeLdV4-107" value="" style="endArrow=classic;html=1;rounded=0;exitX=0;exitY=0.5;exitDx=0;exitDy=0;" parent="1" source="Zfw_EBbgk86jnpkeLdV4-105" edge="1">
          <mxGeometry width="50" height="50" relative="1" as="geometry">
            <mxPoint x="80" y="1640" as="sourcePoint" />
            <mxPoint x="40" y="1615" as="targetPoint" />
          </mxGeometry>
        </mxCell>
        <mxCell id="Zfw_EBbgk86jnpkeLdV4-108" value="Sơ đồ hoạt động" style="rounded=0;whiteSpace=wrap;html=1;" parent="1" vertex="1">
          <mxGeometry x="30" y="1740" width="180" height="60" as="geometry" />
        </mxCell>
        <mxCell id="Zfw_EBbgk86jnpkeLdV4-109" value="" style="ellipse;whiteSpace=wrap;html=1;aspect=fixed;fillColor=#d5e8d4;strokeColor=#82b366;" parent="1" vertex="1">
          <mxGeometry x="30" y="1950" width="50" height="50" as="geometry" />
        </mxCell>
        <mxCell id="Zfw_EBbgk86jnpkeLdV4-110" value="" style="endArrow=classic;html=1;rounded=0;exitX=1;exitY=0.5;exitDx=0;exitDy=0;" parent="1" source="Zfw_EBbgk86jnpkeLdV4-109" edge="1">
          <mxGeometry width="50" height="50" relative="1" as="geometry">
            <mxPoint x="90" y="2000" as="sourcePoint" />
            <mxPoint x="140" y="1975" as="targetPoint" />
          </mxGeometry>
        </mxCell>
        <mxCell id="Zfw_EBbgk86jnpkeLdV4-111" value="Tìm kiếm&amp;nbsp;" style="rounded=1;whiteSpace=wrap;html=1;" parent="1" vertex="1">
          <mxGeometry x="145" y="1945" width="120" height="60" as="geometry" />
        </mxCell>
        <mxCell id="Zfw_EBbgk86jnpkeLdV4-112" value="Hủy&amp;nbsp;" style="rounded=1;whiteSpace=wrap;html=1;" parent="1" vertex="1">
          <mxGeometry x="145" y="2060" width="120" height="60" as="geometry" />
        </mxCell>
        <mxCell id="Zfw_EBbgk86jnpkeLdV4-113" value="" style="endArrow=classic;html=1;rounded=0;entryX=0.5;entryY=0;entryDx=0;entryDy=0;exitX=0.5;exitY=1;exitDx=0;exitDy=0;" parent="1" source="Zfw_EBbgk86jnpkeLdV4-111" target="Zfw_EBbgk86jnpkeLdV4-112" edge="1">
          <mxGeometry width="50" height="50" relative="1" as="geometry">
            <mxPoint x="200" y="2010" as="sourcePoint" />
            <mxPoint x="250" y="1960" as="targetPoint" />
          </mxGeometry>
        </mxCell>
        <mxCell id="Zfw_EBbgk86jnpkeLdV4-114" value="" style="ellipse;whiteSpace=wrap;html=1;aspect=fixed;fillColor=#d5e8d4;strokeColor=#82b366;" parent="1" vertex="1">
          <mxGeometry x="180" y="2180" width="50" height="50" as="geometry" />
        </mxCell>
        <mxCell id="Zfw_EBbgk86jnpkeLdV4-115" value="" style="endArrow=classic;html=1;rounded=0;entryX=0.5;entryY=0;entryDx=0;entryDy=0;exitX=0.5;exitY=1;exitDx=0;exitDy=0;" parent="1" source="Zfw_EBbgk86jnpkeLdV4-112" target="Zfw_EBbgk86jnpkeLdV4-114" edge="1">
          <mxGeometry width="50" height="50" relative="1" as="geometry">
            <mxPoint x="210" y="2120" as="sourcePoint" />
            <mxPoint x="260" y="2070" as="targetPoint" />
          </mxGeometry>
        </mxCell>
        <mxCell id="Zfw_EBbgk86jnpkeLdV4-116" value="" style="endArrow=classic;html=1;rounded=0;exitX=1;exitY=0.5;exitDx=0;exitDy=0;" parent="1" source="Zfw_EBbgk86jnpkeLdV4-111" edge="1">
          <mxGeometry width="50" height="50" relative="1" as="geometry">
            <mxPoint x="430" y="2110" as="sourcePoint" />
            <mxPoint x="340" y="1975" as="targetPoint" />
          </mxGeometry>
        </mxCell>
        <mxCell id="Zfw_EBbgk86jnpkeLdV4-117" value="Chọn chuyến&amp;nbsp;" style="rounded=1;whiteSpace=wrap;html=1;" parent="1" vertex="1">
          <mxGeometry x="350" y="1945" width="120" height="60" as="geometry" />
        </mxCell>
        <mxCell id="Zfw_EBbgk86jnpkeLdV4-118" value="" style="endArrow=classic;html=1;rounded=0;" parent="1" edge="1">
          <mxGeometry width="50" height="50" relative="1" as="geometry">
            <mxPoint x="410" y="1940" as="sourcePoint" />
            <mxPoint x="410" y="1890" as="targetPoint" />
          </mxGeometry>
        </mxCell>
        <mxCell id="Zfw_EBbgk86jnpkeLdV4-119" value="Đặt lại vé" style="rounded=1;whiteSpace=wrap;html=1;" parent="1" vertex="1">
          <mxGeometry x="354" y="1820" width="120" height="60" as="geometry" />
        </mxCell>
        <mxCell id="Zfw_EBbgk86jnpkeLdV4-120" value="" style="endArrow=classic;html=1;rounded=0;exitX=1;exitY=0.5;exitDx=0;exitDy=0;" parent="1" source="Zfw_EBbgk86jnpkeLdV4-117" edge="1">
          <mxGeometry width="50" height="50" relative="1" as="geometry">
            <mxPoint x="480" y="1990" as="sourcePoint" />
            <mxPoint x="520" y="1975" as="targetPoint" />
          </mxGeometry>
        </mxCell>
        <mxCell id="Zfw_EBbgk86jnpkeLdV4-122" value="" style="endArrow=none;html=1;rounded=0;exitX=1;exitY=0.5;exitDx=0;exitDy=0;" parent="1" source="Zfw_EBbgk86jnpkeLdV4-119" edge="1">
          <mxGeometry width="50" height="50" relative="1" as="geometry">
            <mxPoint x="470" y="1860" as="sourcePoint" />
            <mxPoint x="510" y="1850" as="targetPoint" />
          </mxGeometry>
        </mxCell>
        <mxCell id="Zfw_EBbgk86jnpkeLdV4-123" value="" style="endArrow=classic;html=1;rounded=0;" parent="1" edge="1">
          <mxGeometry width="50" height="50" relative="1" as="geometry">
            <mxPoint x="510" y="1850" as="sourcePoint" />
            <mxPoint x="510" y="1970" as="targetPoint" />
          </mxGeometry>
        </mxCell>
        <mxCell id="Zfw_EBbgk86jnpkeLdV4-124" value="" style="rhombus;whiteSpace=wrap;html=1;fillColor=#dae8fc;strokeColor=#6c8ebf;" parent="1" vertex="1">
          <mxGeometry x="520" y="1955" width="30" height="35" as="geometry" />
        </mxCell>
        <mxCell id="Zfw_EBbgk86jnpkeLdV4-125" value="First class" style="rounded=1;whiteSpace=wrap;html=1;" parent="1" vertex="1">
          <mxGeometry x="600" y="1895" width="120" height="60" as="geometry" />
        </mxCell>
        <mxCell id="Zfw_EBbgk86jnpkeLdV4-126" value="Second class" style="rounded=1;whiteSpace=wrap;html=1;" parent="1" vertex="1">
          <mxGeometry x="600" y="2020" width="120" height="60" as="geometry" />
        </mxCell>
        <mxCell id="Zfw_EBbgk86jnpkeLdV4-127" value="" style="endArrow=classic;html=1;rounded=0;" parent="1" edge="1">
          <mxGeometry width="50" height="50" relative="1" as="geometry">
            <mxPoint x="550" y="1970" as="sourcePoint" />
            <mxPoint x="600" y="1920" as="targetPoint" />
          </mxGeometry>
        </mxCell>
        <mxCell id="Zfw_EBbgk86jnpkeLdV4-128" value="" style="endArrow=classic;html=1;rounded=0;exitX=1;exitY=0.5;exitDx=0;exitDy=0;entryX=0;entryY=0;entryDx=0;entryDy=0;" parent="1" source="Zfw_EBbgk86jnpkeLdV4-124" target="Zfw_EBbgk86jnpkeLdV4-126" edge="1">
          <mxGeometry width="50" height="50" relative="1" as="geometry">
            <mxPoint x="570" y="2020" as="sourcePoint" />
            <mxPoint x="620" y="1970" as="targetPoint" />
          </mxGeometry>
        </mxCell>
        <mxCell id="Zfw_EBbgk86jnpkeLdV4-129" value="" style="endArrow=classic;html=1;rounded=0;" parent="1" edge="1">
          <mxGeometry width="50" height="50" relative="1" as="geometry">
            <mxPoint x="720" y="1930" as="sourcePoint" />
            <mxPoint x="800" y="1980" as="targetPoint" />
          </mxGeometry>
        </mxCell>
        <mxCell id="Zfw_EBbgk86jnpkeLdV4-130" value="" style="endArrow=classic;html=1;rounded=0;" parent="1" edge="1">
          <mxGeometry width="50" height="50" relative="1" as="geometry">
            <mxPoint x="720" y="2060" as="sourcePoint" />
            <mxPoint x="800" y="2000" as="targetPoint" />
          </mxGeometry>
        </mxCell>
        <mxCell id="Zfw_EBbgk86jnpkeLdV4-131" value="Thời gian" style="rounded=1;whiteSpace=wrap;html=1;" parent="1" vertex="1">
          <mxGeometry x="810" y="1960" width="120" height="60" as="geometry" />
        </mxCell>
        <mxCell id="Zfw_EBbgk86jnpkeLdV4-132" value="" style="endArrow=classic;html=1;rounded=0;" parent="1" edge="1">
          <mxGeometry width="50" height="50" relative="1" as="geometry">
            <mxPoint x="930" y="2000" as="sourcePoint" />
            <mxPoint x="990" y="2000" as="targetPoint" />
          </mxGeometry>
        </mxCell>
        <mxCell id="Zfw_EBbgk86jnpkeLdV4-133" value="Gửi thông tin&amp;nbsp;" style="rounded=1;whiteSpace=wrap;html=1;" parent="1" vertex="1">
          <mxGeometry x="990" y="1970" width="120" height="60" as="geometry" />
        </mxCell>
        <mxCell id="Zfw_EBbgk86jnpkeLdV4-134" value="" style="endArrow=classic;html=1;rounded=0;exitX=1;exitY=0.5;exitDx=0;exitDy=0;" parent="1" source="Zfw_EBbgk86jnpkeLdV4-133" edge="1">
          <mxGeometry width="50" height="50" relative="1" as="geometry">
            <mxPoint x="1110" y="2010" as="sourcePoint" />
            <mxPoint x="1160" y="2000" as="targetPoint" />
          </mxGeometry>
        </mxCell>
        <mxCell id="Zfw_EBbgk86jnpkeLdV4-135" value="Thanh toán&amp;nbsp;" style="rounded=1;whiteSpace=wrap;html=1;" parent="1" vertex="1">
          <mxGeometry x="1160" y="1970" width="120" height="60" as="geometry" />
        </mxCell>
        <mxCell id="Zfw_EBbgk86jnpkeLdV4-136" value="Nhận vé&amp;nbsp;" style="rounded=1;whiteSpace=wrap;html=1;" parent="1" vertex="1">
          <mxGeometry x="1340" y="1970" width="120" height="60" as="geometry" />
        </mxCell>
        <mxCell id="Zfw_EBbgk86jnpkeLdV4-137" value="" style="endArrow=classic;html=1;rounded=0;entryX=0;entryY=0.5;entryDx=0;entryDy=0;" parent="1" target="Zfw_EBbgk86jnpkeLdV4-136" edge="1">
          <mxGeometry width="50" height="50" relative="1" as="geometry">
            <mxPoint x="1280" y="2000" as="sourcePoint" />
            <mxPoint x="1330" y="1950" as="targetPoint" />
          </mxGeometry>
        </mxCell>
        <mxCell id="Zfw_EBbgk86jnpkeLdV4-138" value="" style="endArrow=classic;html=1;rounded=0;exitX=1;exitY=0.5;exitDx=0;exitDy=0;" parent="1" source="Zfw_EBbgk86jnpkeLdV4-136" edge="1">
          <mxGeometry width="50" height="50" relative="1" as="geometry">
            <mxPoint x="1460" y="2010" as="sourcePoint" />
            <mxPoint x="1510" y="2000" as="targetPoint" />
          </mxGeometry>
        </mxCell>
        <mxCell id="Zfw_EBbgk86jnpkeLdV4-139" value="" style="ellipse;whiteSpace=wrap;html=1;aspect=fixed;fillColor=#d5e8d4;strokeColor=#82b366;" parent="1" vertex="1">
          <mxGeometry x="1510" y="1980" width="40" height="40" as="geometry" />
        </mxCell>
        <mxCell id="Zfw_EBbgk86jnpkeLdV4-140" value="" style="curved=1;endArrow=classic;html=1;rounded=0;" parent="1" edge="1">
          <mxGeometry width="50" height="50" relative="1" as="geometry">
            <mxPoint x="1240" y="1960" as="sourcePoint" />
            <mxPoint x="1270" y="1900" as="targetPoint" />
            <Array as="points">
              <mxPoint x="1220" y="1950" />
              <mxPoint x="1200" y="1940" />
              <mxPoint x="1170" y="1900" />
            </Array>
          </mxGeometry>
        </mxCell>
        <mxCell id="Zfw_EBbgk86jnpkeLdV4-141" value="hoá đơn hoặc mua trực tiếp" style="text;html=1;align=center;verticalAlign=middle;whiteSpace=wrap;rounded=0;" parent="1" vertex="1">
          <mxGeometry x="1280" y="1860" width="120" height="40" as="geometry" />
        </mxCell>
      </root>
    </mxGraphModel>
  </diagram>
</mxfile>
